<?xml version="1.0" standalone="no"?>
<!DOCTYPE svg PUBLIC "-//W3C//DTD SVG 20010904//EN"
 "http://www.w3.org/TR/2001/REC-SVG-20010904/DTD/svg10.dtd">
<svg version="1.0" xmlns="http://www.w3.org/2000/svg"
 width="256.000000pt" height="256.000000pt" viewBox="0 0 256.000000 256.000000"
 preserveAspectRatio="xMidYMid meet">
<metadata>
Created by potrace 1.14, written by Peter Selinger 2001-2017
</metadata>
<g transform="translate(0.000000,256.000000) scale(0.100000,-0.100000)"
fill="#000000" stroke="none">
<path d="M1244 2336 c-6 -6 -25 -22 -42 -35 -18 -13 -32 -30 -32 -37 0 -8 -4
-14 -8 -14 -11 0 -54 -89 -47 -100 3 -4 1 -10 -4 -12 -9 -3 -19 -49 -26 -118
-2 -14 -4 -25 -5 -25 -3 0 -8 -51 -9 -103 l-1 -44 -48 46 c-26 25 -63 57 -82
70 -19 14 -39 29 -45 33 -16 13 -69 37 -77 35 -5 -1 -8 3 -8 8 0 7 -6 7 -19 1
-10 -6 -21 -7 -25 -4 -13 14 -51 13 -81 -1 -16 -8 -43 -19 -58 -25 -15 -6 -27
-15 -27 -21 0 -5 -7 -10 -15 -10 -8 0 -15 -3 -15 -7 0 -5 -11 -21 -25 -37 -14
-16 -25 -37 -25 -48 0 -10 -4 -18 -8 -18 -15 0 -20 -124 -10 -213 l6 -48 -59
5 c-32 2 -59 0 -59 -4 0 -5 -8 -7 -18 -5 -20 3 -62 -32 -62 -52 0 -7 -4 -13
-10 -13 -17 0 -11 -78 7 -101 19 -22 79 -81 123 -119 14 -12 24 -26 23 -31 -2
-5 3 -9 10 -9 6 0 67 -53 133 -118 189 -182 270 -252 293 -252 6 0 11 -4 11
-10 0 -5 7 -10 15 -10 8 0 15 -5 15 -11 0 -5 5 -7 10 -4 6 3 10 3 10 -2 0 -4
25 -19 55 -33 56 -25 58 -29 68 -100 2 -8 5 -19 9 -25 3 -5 9 -29 13 -52 4
-24 11 -45 15 -48 5 -3 7 -12 3 -20 -3 -8 -1 -15 4 -15 5 0 9 -8 10 -17 2 -24
13 -74 20 -93 4 -8 5 -21 4 -29 -1 -8 2 -17 8 -20 9 -6 17 -33 26 -86 2 -11 4
-21 5 -22 2 -2 3 -6 5 -10 1 -5 4 -15 8 -23 10 -28 20 -75 18 -87 -1 -7 2 -13
8 -13 5 0 8 -8 6 -18 -1 -9 0 -21 4 -27 3 -5 13 -37 21 -70 l16 -60 42 -3 c40
-3 42 -2 33 20 -5 13 -9 26 -10 31 0 4 -1 8 -2 10 0 1 -2 13 -5 27 -2 14 -7
32 -11 40 -3 8 -7 18 -8 23 -2 4 -4 9 -5 12 -4 7 -6 16 -15 60 -4 22 -13 46
-19 54 -9 12 -8 13 4 6 13 -7 13 -6 2 7 -21 26 -41 199 -27 235 5 15 7 14 19
-3 11 -16 27 -62 30 -86 1 -3 4 -9 8 -13 4 -4 4 -13 1 -21 -3 -8 0 -14 6 -14
6 0 11 -11 11 -24 0 -14 5 -28 10 -31 6 -4 8 -11 5 -16 -4 -5 -1 -9 6 -9 6 0
9 -8 7 -18 -3 -10 1 -23 9 -30 7 -7 11 -17 8 -23 -4 -5 -1 -9 5 -9 6 0 8 -4 5
-10 -3 -6 -2 -10 4 -10 5 0 8 -9 6 -20 -2 -11 0 -20 4 -20 9 0 37 -109 33
-128 -2 -6 2 -12 8 -12 5 0 10 -7 10 -15 0 -11 12 -15 49 -15 48 0 56 7 39 35
-3 6 -9 25 -13 42 -3 18 -10 33 -15 33 -4 0 -6 9 -3 20 3 11 0 20 -6 20 -6 0
-11 15 -11 34 0 19 -5 38 -10 41 -6 4 -8 10 -5 15 10 17 4 214 -7 225 -4 4 -3
18 3 32 6 16 6 22 -1 18 -14 -9 -12 9 2 23 9 9 9 12 1 12 -8 0 -9 9 -4 28 14
47 75 187 83 190 26 11 -18 174 -53 202 -6 5 -19 171 -23 310 -1 36 -6 71 -10
78 -4 7 -2 12 4 12 6 0 8 5 4 12 -4 6 -8 37 -9 67 -2 54 -12 262 -20 406 -2
39 -7 97 -11 130 -3 33 -7 70 -7 83 -1 12 -4 22 -7 22 -3 0 -7 19 -9 42 -1 23
-5 46 -9 52 -7 12 -10 27 -14 63 -1 12 -6 19 -10 17 -4 -3 -8 1 -8 10 0 8 -12
28 -26 45 -20 25 -33 31 -58 29 -18 -1 -37 -7 -42 -12z m51 -140 c8 -7 11 -16
8 -20 -4 -3 -1 -6 6 -6 7 0 9 -4 6 -10 -3 -5 -2 -10 3 -10 8 0 27 -74 23 -92
0 -5 3 -8 7 -8 5 0 8 -20 8 -45 -1 -25 2 -45 5 -45 3 0 7 -122 8 -271 1 -151
-2 -268 -7 -265 -4 2 -19 27 -33 53 -13 26 -32 57 -41 67 -10 11 -18 26 -18
33 0 7 -3 13 -7 13 -5 0 -17 18 -27 40 -11 22 -24 40 -29 40 -6 0 -7 3 -4 7 4
3 1 13 -5 21 -22 26 -34 76 -32 137 6 161 14 219 39 267 14 26 23 48 21 48 -2
0 8 14 22 30 31 35 29 34 47 16z m-433 -283 c11 -10 22 -16 25 -15 5 4 47 -33
73 -65 30 -35 60 -84 48 -77 -8 5 -7 1 2 -10 19 -24 38 -79 46 -136 4 -25 12
-48 18 -52 8 -5 7 -8 -2 -8 -10 0 -10 -5 -2 -20 6 -11 8 -20 5 -20 -4 0 -3 -6
2 -12 4 -7 9 -22 10 -33 2 -11 8 -45 13 -75 16 -85 16 -95 6 -102 -5 -3 -15 0
-22 6 -17 18 -44 83 -36 90 3 3 1 6 -4 6 -10 0 -40 97 -36 113 1 4 -2 7 -6 7
-5 0 -14 24 -21 53 -8 28 -17 57 -22 62 -4 6 -9 22 -11 35 -2 14 -9 34 -15 45
-5 11 -8 26 -6 33 3 6 0 12 -6 12 -6 0 -11 11 -11 25 0 14 -4 25 -10 25 -5 0
-10 7 -10 16 0 8 -4 13 -8 10 -7 -4 -9 -131 -2 -131 1 0 2 -60 4 -133 1 -73
-1 -131 -4 -129 -3 1 -24 11 -47 21 -24 10 -43 22 -43 28 0 5 -4 7 -8 4 -11
-7 -82 41 -82 55 0 6 -5 7 -10 4 -6 -3 -13 2 -17 12 -4 10 -12 23 -19 28 -26
21 -40 81 -39 156 2 111 29 165 97 193 37 16 123 4 150 -21z m377 -475 c19
-35 41 -76 49 -93 9 -16 20 -33 26 -37 6 -4 8 -8 3 -8 -4 0 2 -18 13 -40 12
-23 22 -54 23 -69 1 -16 5 -27 10 -24 4 2 7 -23 7 -56 0 -34 -4 -61 -9 -61 -5
0 -30 20 -54 45 -25 25 -43 45 -41 45 3 0 -4 10 -15 22 -12 12 -24 38 -28 57
-8 42 -10 49 -13 59 -1 4 -2 21 -2 37 0 17 -5 38 -10 49 -7 14 -7 16 2 11 9
-6 9 -3 1 13 -7 14 -8 23 -1 27 6 4 8 11 4 16 -10 18 -16 69 -7 69 5 0 24 -28
42 -62z m-680 33 c25 -14 67 -49 114 -93 16 -16 31 -28 33 -28 5 0 25 -18 127
-114 66 -61 151 -144 165 -161 10 -12 10 -15 0 -15 -9 0 -9 -3 -2 -8 6 -4 11
-26 12 -48 3 -39 1 -41 -23 -37 -13 3 -22 9 -19 14 3 5 -2 9 -11 9 -24 0 -93
38 -104 57 -6 10 -11 15 -11 11 0 -4 -60 52 -132 124 -73 72 -132 136 -130
141 1 4 -1 6 -6 3 -10 -6 -128 114 -124 126 1 4 -4 8 -10 8 -9 1 -7 5 3 13 22
16 88 15 118 -2z m341 -161 c6 0 9 -4 6 -9 -3 -5 5 -12 19 -15 17 -4 25 -13
25 -29 -1 -20 -2 -21 -14 -5 -7 10 -15 16 -17 14 -2 -2 -24 17 -49 41 -36 37
-39 41 -13 24 17 -11 36 -21 43 -21z m250 -320 c0 -5 6 -7 13 -4 7 2 22 -4 32
-14 11 -10 23 -18 27 -18 3 1 18 -9 32 -21 15 -13 29 -23 32 -23 12 0 33 -28
26 -35 -4 -4 -2 -6 3 -5 21 5 36 0 30 -10 -3 -5 0 -10 8 -10 7 0 23 -18 35
-41 19 -35 22 -57 22 -153 0 -76 -4 -116 -12 -125 -10 -11 -10 -13 0 -7 6 4
12 3 12 -1 0 -5 -6 -15 -12 -22 -11 -11 -10 -12 0 -7 9 6 11 1 8 -19 -3 -15
-7 -29 -9 -32 -7 -6 -27 82 -27 116 0 16 -5 33 -11 36 -6 4 -8 13 -5 21 3 7 1
16 -3 19 -5 2 -12 25 -15 50 -4 25 -11 45 -17 45 -5 0 -9 7 -9 15 0 8 -4 15
-9 15 -5 0 -19 21 -32 48 -25 52 -37 64 -89 89 -19 9 -37 18 -39 19 -10 8 -12
84 -2 84 6 0 11 -4 11 -10z"/>
<path d="M2367 1789 c7 -7 15 -10 18 -7 3 3 -2 9 -12 12 -14 6 -15 5 -6 -5z"/>
<path d="M2289 1760 c-13 -10 -19 -19 -12 -20 6 0 18 6 25 13 7 8 20 16 28 20
12 4 12 6 -1 6 -9 1 -27 -8 -40 -19z"/>
<path d="M2345 1490 c3 -5 -14 -18 -37 -29 -51 -23 -132 -115 -223 -251 -16
-25 -33 -47 -36 -50 -3 -3 -14 -18 -23 -35 -9 -16 -28 -48 -41 -70 -14 -22
-31 -50 -37 -62 -6 -13 -15 -23 -20 -23 -4 0 -8 -6 -8 -14 0 -7 -21 -58 -46
-112 -68 -149 -74 -161 -74 -171 0 -4 -7 -21 -15 -37 -8 -15 -12 -32 -9 -37 3
-5 1 -9 -4 -9 -7 0 -27 -53 -38 -100 0 -3 -4 -13 -7 -23 -4 -9 -10 -25 -14
-35 -3 -9 -5 -23 -4 -29 1 -7 -2 -13 -7 -13 -6 0 -13 -17 -18 -37 -9 -45 -8
-41 -23 -78 -7 -16 -15 -46 -18 -65 -3 -19 -9 -40 -14 -46 -5 -6 -6 -14 -2
-17 3 -4 0 -13 -7 -22 -7 -8 -10 -15 -7 -15 3 0 1 -16 -5 -36 -22 -81 -34 -74
128 -74 121 0 144 2 144 15 0 8 5 15 11 15 6 0 9 7 5 15 -3 8 -1 15 4 15 6 0
10 5 10 10 0 6 16 46 36 88 47 101 58 125 56 135 -1 4 2 7 7 7 5 0 13 9 16 20
8 26 35 26 35 0 0 -11 -4 -20 -9 -20 -4 0 -8 -8 -8 -17 1 -21 -12 -91 -20
-113 -4 -8 -5 -21 -4 -29 1 -7 -1 -20 -5 -30 -4 -9 -8 -23 -9 -31 -2 -8 -8
-30 -13 -47 l-11 -33 60 0 c56 0 59 1 65 28 3 15 9 36 13 47 4 11 7 27 6 35 0
8 2 17 6 20 7 6 30 106 32 143 1 15 5 27 8 27 4 0 10 19 14 43 8 43 11 53 15
62 1 3 3 13 4 23 1 9 4 22 8 27 5 9 22 102 20 115 0 3 4 10 10 17 5 7 7 17 3
23 -3 5 -1 10 4 10 6 0 11 8 11 18 0 10 3 22 7 26 4 4 8 19 9 34 1 15 3 27 4
27 1 0 4 9 6 20 3 26 10 53 22 99 6 20 8 36 5 36 -3 0 -1 6 5 13 5 6 13 33 17
59 4 26 10 46 14 44 3 -2 7 6 8 17 5 54 27 157 33 157 4 0 6 14 5 30 -1 17 1
32 5 35 10 6 22 85 25 163 1 48 -3 66 -17 82 -19 20 -75 29 -63 10z m19 -114
c-1 -22 -2 -43 -4 -46 -1 -3 -2 -22 -2 -42 0 -21 -4 -38 -9 -38 -5 0 -9 -13
-9 -30 0 -16 -4 -30 -8 -30 -5 0 -8 -10 -7 -22 1 -13 -1 -27 -6 -33 -4 -5 -8
-14 -8 -20 -2 -32 -25 -114 -31 -110 -3 2 -6 -12 -5 -31 1 -18 -2 -34 -6 -34
-5 0 -9 -13 -9 -30 0 -16 -4 -30 -9 -30 -6 0 -8 -10 -6 -21 3 -12 1 -19 -3
-15 -3 4 -8 50 -9 103 -1 53 -4 102 -7 110 -7 16 -82 16 -103 0 -7 -5 -18 -7
-24 -5 -7 2 -23 -7 -36 -20 -38 -37 -40 -17 -4 33 18 25 29 45 24 45 -4 0 -3
4 3 8 5 4 20 24 33 45 12 20 27 37 32 37 6 0 7 5 4 11 -4 6 1 19 11 28 11 10
26 29 34 41 22 34 73 94 88 103 7 5 17 14 23 20 7 7 21 13 33 13 20 1 22 -3
20 -40z m-354 -576 c-6 -11 -7 -20 -3 -20 4 0 3 -4 -3 -8 -10 -7 -29 -45 -55
-107 -14 -34 -18 -46 -20 -62 -1 -5 -10 -25 -20 -45 -11 -21 -17 -38 -13 -38
4 0 2 -6 -4 -12 -6 -7 -10 -15 -10 -18 0 -3 -6 -25 -13 -50 -15 -55 -12 -43
-29 -112 -7 -32 -17 -58 -21 -58 -4 0 -7 -8 -7 -17 0 -10 -5 -31 -12 -48 -7
-16 -14 -36 -16 -43 -1 -8 -6 -21 -10 -30 -4 -9 -9 -26 -11 -37 -2 -11 -10
-25 -19 -31 -12 -9 -12 -13 -2 -17 8 -3 6 -6 -6 -6 -16 -1 -18 5 -12 52 5 47
12 85 20 112 2 6 7 29 11 53 4 23 11 42 15 42 3 0 7 6 7 14 0 27 26 106 35
106 5 0 6 5 3 10 -4 6 -2 16 3 23 5 7 13 27 17 45 3 18 10 30 14 27 5 -2 8 3
8 13 -1 9 13 47 31 85 18 37 32 72 32 77 0 6 4 10 9 10 5 0 12 11 15 24 6 23
57 86 70 86 4 0 2 -9 -4 -20z"/>
</g>
</svg>
